{"title":"The Twilight Saga Breaking Dawn Part 1 2011 TS XviD-BlackStaticR","uid":6834184,"size":1640876234,"categoryP":"video","categoryS":"movies","magnet":"?xt=urn:btih:fe9f7c445932b847b143225cbcc56abe20474510&amp;dn=The+Twilight+Saga+Breaking+Dawn+Part+1+2011+TS+XviD-BlackStaticR&amp;tr=udp%3A%2F%2Ftracker.openbittorrent.com%3A80&amp;tr=udp%3A%2F%2Fopen.demonii.com%3A1337&amp;tr=udp%3A%2F%2Ftracker.coppersurfer.tk%3A6969&amp;tr=udp%3A%2F%2Fexodus.desync.com%3A6969","seeders":2,"leechers":0,"uploader":"tykoon123","files":8,"time":1321967830,"description":"Cover Image: &lt;a href=&quot;\nhttp://www.shotpix.com/images/67387876336854335309.jpg&quot; rel=&quot;nofollow&quot; target=&quot;_NEW&quot;&gt;\nhttp://www.shotpix.com/images/67387876336854335309.jpg&lt;/a&gt;\n\nGenre :Adventure | Drama | Fantasy \nLanguage:English\nIMDb:http://www.imdb.com/title/tt1324999/\n\nPLOT:\nThe Quileute and the Volturi close in on expecting parents Edward and Bella, whose unborn child poses different threats to the wolf pack and vampire coven. \n\nFormat : AVI\nFormat/Info : Audio Video Interleave\nFile size : 1.53 GiB\nDuration : 1h 43mn\nOverall bit rate : 2 121 Kbps\nWriting library : VirtualDub build 32842/release\n\nVideo\nID : 0\nFormat : MPEG-4 Visual\nFormat profile : Simple@L3\nFormat settings, BVOP : No\nFormat settings, QPel : No\nFormat settings, GMC : No warppoints\nFormat settings, Matrix : Default (H.263)\nCodec ID : XVID\nCodec ID/Hint : XviD\nDuration : 1h 43mn\nBit rate : 700 Kbps\nWidth : 640 pixels\nHeight : 256 pixels\nDisplay aspect ratio : 2.500\nFrame rate : 25.000 fps\nColor space : YUV\nChroma subsampling : 4:2:0\nBit depth : 8 bits\nScan type : Progressive\nCompression mode : Lossy\nBits/(Pixel*Frame) : 0.171\nStream size : 516 MiB (33%)\nWriting library : XviD 64\n\n\nAudio\nID : 1\nFormat : PCM\nFormat settings, Endianness : Little\nFormat settings, Sign : Signed\nCodec ID : 1\nCodec ID/Hint : Microsoft\nDuration : 1h 43mn\nBit rate mode : Constant\nBit rate : 1 411.2 Kbps\nChannel(s) : 2 channels\nSampling rate : 44.1 KHz\nBit depth : 16 bits\nStream size : 1.02 GiB (67%)\nInterleave, duration : 40 ms (1.00 video frame)\nInterleave, preload duration : 500 ms\n\n\nReleaser's Note :\nVideo: TS Russian .. Thanks\nAudio: Hope Thanks\n\n\nThe video source is from some Russians . I think its KiKteam but the russian Claim Its Theirs . Audio in the Cam Had Volume Problems that we couldn't hear a word in the Movie . We Cleaned Abit Expect Human Noises And Giving You Guys A RAW Audio ! We increased the volume To Let U Guys Hear ! Not To Go Deaf and its Greats ! Audio Sync Perfect !\nSome Video Notes : Video Was Kinda Crappy ! We Boost it To A Natural Veiw ! We Bright it up and Level it ! Sharp a Little For Clearness ! A Experiment By BlackstaticRG ! Like it Download It\n\n\nScreens: &lt;a href=&quot;\nhttp://www.shotpix.com/images/29983758319506990567.png&quot; rel=&quot;nofollow&quot; target=&quot;_NEW&quot;&gt;\nhttp://www.shotpix.com/images/29983758319506990567.png&lt;/a&gt; &lt;a href=&quot;\nhttp://www.shotpix.com/images/61891251154950501547.png&quot; rel=&quot;nofollow&quot; target=&quot;_NEW&quot;&gt;\nhttp://www.shotpix.com/images/61891251154950501547.png&lt;/a&gt; &lt;a href=&quot;\nhttp://www.shotpix.com/images/33026509451614768076.png&quot; rel=&quot;nofollow&quot; target=&quot;_NEW&quot;&gt;\nhttp://www.shotpix.com/images/33026509451614768076.png&lt;/a&gt; &lt;a href=&quot;\nhttp://www.shotpix.com/images/27589943472088372908.png&quot; rel=&quot;nofollow&quot; target=&quot;_NEW&quot;&gt;\nhttp://www.shotpix.com/images/27589943472088372908.png&lt;/a&gt; &lt;a href=&quot;\nhttp://www.shotpix.com/images/53531715689132870228.png&quot; rel=&quot;nofollow&quot; target=&quot;_NEW&quot;&gt;\nhttp://www.shotpix.com/images/53531715689132870228.png&lt;/a&gt; &lt;a href=&quot;\nhttp://www.shotpix.com/images/09023749912235447081.png&quot; rel=&quot;nofollow&quot; target=&quot;_NEW&quot;&gt;\nhttp://www.shotpix.com/images/09023749912235447081.png&lt;/a&gt;   &lt;a href=&quot; http://www.shotpix.com/images/34353537267941614299.png&quot; rel=&quot;nofollow&quot; target=&quot;_NEW&quot;&gt; http://www.shotpix.com/images/34353537267941614299.png&lt;/a&gt;\n\n\nEnjoy.... !\nThanks To NiCkkkdon\nGreetz to ::\nIMAGiNE,Flawl3ss,BDK,Ez,DDR,Sam,absurdity,BHRG,iLLUMiNATi,ViSUALiSE,MiSTERE,Feel-Free !!\n\nOur FB fanpage: \n","torrent":{"xt":"urn:btih:fe9f7c445932b847b143225cbcc56abe20474510","amp;dn":"The+Twilight+Saga+Breaking+Dawn+Part+1+2011+TS+XviD-BlackStaticR","amp;tr":["udp%3A%2F%2Ftracker.openbittorrent.com%3A80","udp%3A%2F%2Fopen.demonii.com%3A1337","udp%3A%2F%2Ftracker.coppersurfer.tk%3A6969","udp%3A%2F%2Fexodus.desync.com%3A6969"],"infoHash":"fe9f7c445932b847b143225cbcc56abe20474510","infoHashBuffer":{"type":"Buffer","data":[254,159,124,68,89,50,184,71,177,67,34,92,188,197,106,190,32,71,69,16]},"announce":[],"urlList":[]}}